<svg width="46" height="50" viewBox="0 0 46 50" fill="none" xmlns="http://www.w3.org/2000/svg">
<path fill-rule="evenodd" clip-rule="evenodd" d="M1.23929 41.0674C0.491576 42.6615 0.0730464 44.39 0.008737 46.1496C-0.0378586 47.4245 0.102197 48.6968 0.422279 49.9264H3.68839C3.23741 48.6379 3.05636 47.2703 3.1565 45.9089C3.25665 44.5474 3.63586 43.221 4.27053 42.0124C4.9052 40.8037 5.78177 39.7385 6.84572 38.8831C7.00733 38.7519 7.14125 38.5899 7.23971 38.4065C7.33817 38.223 7.39919 38.0219 7.41924 37.8147C7.78928 34.0625 9.54159 30.5821 12.3354 28.0502C15.1292 25.5184 18.7648 24.1161 22.5352 24.1161C26.3055 24.1161 29.9411 25.5184 32.735 28.0502C35.5288 30.5821 37.2811 34.0625 37.6511 37.8147C37.6719 38.0223 37.7334 38.2239 37.8323 38.4077C37.9312 38.5915 38.0654 38.754 38.2273 38.8858C39.38 39.8172 40.3094 40.9951 40.9471 42.3329C41.5847 43.6708 41.9144 45.1345 41.912 46.6166C41.9114 47.7503 41.7171 48.869 41.3435 49.9264H44.6294C44.9102 48.8515 45.0546 47.7396 45.0546 46.6166C45.0587 44.7761 44.6733 42.9556 43.9235 41.2747C43.1738 39.5938 42.0768 38.0906 40.7047 36.864C40.4413 34.8827 39.8557 32.9577 38.971 31.1654C41.4514 26.2554 43.2623 21.0349 44.3553 15.6436C45.1436 11.5529 45.6621 5.97743 43.6509 2.64889C43.1898 1.82912 42.5149 1.14986 41.6981 0.683576C40.8813 0.217291 39.9532 -0.018538 39.0129 0.00124352C32.5077 0.00124352 28.4957 11.2413 26.1989 21.3264C23.7801 20.8282 21.285 20.8282 18.8662 21.3264C16.5695 11.2413 12.5574 0.00124352 6.05221 0.00124352C5.11268 -0.0193131 4.18516 0.215332 3.36842 0.680193C2.55169 1.14505 1.87632 1.82272 1.41425 2.64103C-0.599639 5.96958 -0.0758719 11.5451 0.70978 15.6357C1.8021 21.0297 3.61303 26.2529 6.09411 31.1654C5.2086 32.9602 4.62296 34.8878 4.36044 36.8719C3.04856 38.0463 1.98701 39.4732 1.23929 41.0674ZM34.8935 25.747C33.2364 24.2333 31.3155 23.0367 29.2263 22.2168C31.8582 10.5813 35.6529 3.14385 39.0129 3.14385C39.4117 3.12723 39.807 3.22488 40.1521 3.42531C40.4973 3.62574 40.7781 3.9206 40.9613 4.27519C43.2214 7.99918 41.3541 18.6474 37.0016 28.0307C36.3639 27.212 35.6587 26.4481 34.8935 25.747ZM10.1585 25.7392C9.39786 26.4408 8.69707 27.2046 8.06348 28.0228C3.71097 18.6474 1.84374 7.99918 4.10379 4.27519C4.28706 3.9206 4.5678 3.62574 4.91298 3.42531C5.25816 3.22488 5.65341 3.12723 6.05221 3.14385C9.41218 3.14385 13.2069 10.5814 15.8257 22.209C13.7365 23.0289 11.8156 24.2255 10.1585 25.7392Z" fill="#9547A5"/>
<path fill-rule="evenodd" clip-rule="evenodd" d="M41.912 46.6166C41.9144 45.1345 41.5847 43.6708 40.9471 42.3329C40.3094 40.9951 39.38 39.8172 38.2273 38.8858C38.0654 38.754 37.9312 38.5915 37.8323 38.4077C37.7334 38.2239 37.6719 38.0223 37.6511 37.8147C37.2811 34.0625 35.5288 30.5821 32.735 28.0502C29.9411 25.5184 26.3055 24.1161 22.5352 24.1161C18.7648 24.1161 15.1292 25.5184 12.3354 28.0502C9.54159 30.5821 7.78928 34.0625 7.41924 37.8147C7.39919 38.0219 7.33817 38.223 7.23971 38.4065C7.14125 38.5899 7.00733 38.7519 6.84572 38.8831C5.78177 39.7385 4.9052 40.8037 4.27053 42.0124C3.63586 43.221 3.25665 44.5474 3.1565 45.9089C3.05636 47.2703 3.23741 48.6379 3.68839 49.9264H41.3435C41.7171 48.869 41.9114 47.7503 41.912 46.6166ZM17.3773 41.7863C17.6651 41.3556 17.8186 40.8493 17.8186 40.3314C17.8186 39.6368 17.5427 38.9707 17.0516 38.4796C16.5605 37.9884 15.8944 37.7125 15.1998 37.7125C14.6819 37.7125 14.1755 37.8661 13.7449 38.1539C13.3142 38.4416 12.9785 38.8506 12.7803 39.3292C12.5821 39.8077 12.5302 40.3343 12.6313 40.8423C12.7323 41.3503 12.9818 41.8169 13.348 42.1832C13.7143 42.5494 14.1809 42.7988 14.6889 42.8999C15.1969 43.0009 15.7235 42.9491 16.202 42.7508C16.6805 42.5526 17.0895 42.217 17.3773 41.7863ZM28.4104 38.1539C28.841 37.8661 29.3473 37.7125 29.8653 37.7125C30.5599 37.7125 31.226 37.9884 31.7171 38.4796C32.2082 38.9707 32.4841 39.6368 32.4841 40.3314C32.4841 40.8493 32.3306 41.3556 32.0428 41.7863C31.755 42.217 31.346 42.5526 30.8675 42.7508C30.389 42.9491 29.8624 43.0009 29.3544 42.8999C28.8464 42.7988 28.3798 42.5494 28.0135 42.1832C27.6473 41.8169 27.3978 41.3503 27.2968 40.8423C27.1957 40.3343 27.2476 39.8077 27.4458 39.3292C27.644 38.8506 27.9797 38.4416 28.4104 38.1539Z" fill="#9547A5"/>
<path d="M8.06348 28.0228C8.69707 27.2046 9.39786 26.4408 10.1585 25.7392C11.8156 24.2255 13.7365 23.0289 15.8257 22.209C13.2069 10.5814 9.41218 3.14385 6.05221 3.14385C5.65341 3.12723 5.25816 3.22488 4.91298 3.42531C4.5678 3.62574 4.28706 3.9206 4.10379 4.27519C1.84374 7.99918 3.71097 18.6474 8.06348 28.0228Z" fill="#9547A5"/>
<path d="M29.2263 22.2168C31.3155 23.0367 33.2364 24.2333 34.8935 25.747C35.6587 26.4481 36.3639 27.212 37.0016 28.0307C41.3541 18.6474 43.2214 7.99918 40.9613 4.27519C40.7781 3.9206 40.4973 3.62574 40.1521 3.42531C39.807 3.22488 39.4117 3.12723 39.0129 3.14385C35.6529 3.14385 31.8582 10.5813 29.2263 22.2168Z" fill="#9547A5"/>
</svg>
