<svg width="24" height="24" viewBox="0 0 24 24" fill="none" xmlns="http://www.w3.org/2000/svg">
<path d="M8.52002 13.8458C7.48002 13.8458 6.63202 12.9008 6.63202 11.7448C6.63202 10.5888 7.45902 9.64281 8.52102 9.64281C9.57102 9.64281 10.431 10.5878 10.41 11.7448C10.41 12.9008 9.57102 13.8458 8.52002 13.8458ZM15.494 13.8448C14.454 13.8448 13.604 12.8998 13.604 11.7438C13.604 10.5878 14.433 9.64181 15.494 9.64181C16.544 9.64181 17.404 10.5868 17.384 11.7438C17.384 12.8998 16.555 13.8448 15.494 13.8448ZM10.125 4.32081L9.81702 3.75781L9.18302 3.86381C7.74633 4.10393 6.34803 4.53439 5.02502 5.14381L4.79702 5.24881L4.65502 5.45881C2.04202 9.31181 1.32502 13.1068 1.68002 16.8338L1.71902 17.2408L2.04902 17.4808C3.58612 18.6089 5.30303 19.4687 7.12702 20.0238L7.91702 20.2658L9.03002 17.5498C10.94 18.0218 13.06 18.0218 14.969 17.5498L16.076 20.2668L16.866 20.0248C18.6916 19.4711 20.4095 18.6104 21.946 17.4798L22.273 17.2418L22.313 16.8398C22.749 12.5198 21.616 8.75681 19.355 5.45581L19.213 5.24781L18.985 5.14381C17.6624 4.53692 16.2658 4.10656 14.831 3.86381L14.213 3.76081L13.899 4.30281C13.811 4.45281 13.722 4.62281 13.636 4.79581C12.5512 4.68461 11.4578 4.68461 10.373 4.79581C10.288 4.62581 10.203 4.46181 10.125 4.32081ZM6.71502 16.6098C6.91202 16.7238 7.12002 16.8358 7.32502 16.9378L6.87602 18.0338C5.66152 17.5913 4.50931 16.9937 3.44802 16.2558C3.22302 13.1178 3.86102 9.95081 6.01202 6.68581C6.9199 6.28634 7.86612 5.98043 8.83602 5.77281C8.89602 5.89781 8.95202 6.02081 8.99802 6.12881L9.27102 6.77181L9.96302 6.67081C11.3191 6.47203 12.6969 6.47203 14.053 6.67081L14.743 6.77081L15.015 6.12881C15.062 6.01681 15.117 5.89481 15.175 5.77281C16.152 5.98281 17.098 6.29281 18.003 6.68781C19.878 9.50781 20.824 12.6538 20.549 16.2548C19.4872 16.9932 18.3343 17.5912 17.119 18.0338L16.674 16.9388C16.88 16.8368 17.088 16.7248 17.287 16.6098C17.777 16.3278 18.304 15.9758 18.64 15.6398L17.36 14.3598C17.197 14.5238 16.837 14.7798 16.383 15.0418C15.939 15.2978 15.498 15.5048 15.216 15.5978C13.213 16.2608 10.788 16.2608 8.78402 15.5978C8.50302 15.5048 8.06202 15.2978 7.61802 15.0418C7.16402 14.7808 6.80402 14.5238 6.64002 14.3598L5.36002 15.6398C5.69702 15.9758 6.22502 16.3278 6.71502 16.6098Z" fill="#358BB9"/>
</svg>
