<svg width="38" height="38" viewBox="0 0 38 38" fill="none" xmlns="http://www.w3.org/2000/svg">
<g filter="url(#filter0_d_5124_137)">
<path d="M12.3971 20.7512C12.1892 20.53 12.0552 20.2497 12.0137 19.949C11.9723 19.6484 12.0253 19.3422 12.1655 19.0731C12.3118 18.7996 12.5362 18.5762 12.8116 18.4324L14.6374 17.5407C15.0945 17.3135 15.4925 16.9831 15.8 16.5757C16.1075 16.1683 16.316 15.695 16.4091 15.1932L16.7638 13.167C16.8273 12.8658 16.9837 12.5922 17.211 12.3847C17.4382 12.1771 17.7249 12.0461 18.0305 12.01C18.3362 11.974 18.6455 12.0347 18.9148 12.1837C19.1841 12.3327 19.3998 12.5624 19.5316 12.8405L20.4252 14.6685C20.6522 15.1258 20.9826 15.5241 21.3901 15.8317C21.7976 16.1394 22.2711 16.3481 22.7732 16.4413L24.7959 16.7993C25.0951 16.8606 25.3677 17.0137 25.5759 17.2372C25.784 17.4607 25.9173 17.7435 25.9572 18.0463C25.9971 18.3491 25.9416 18.6567 25.7984 18.9265C25.6553 19.1963 25.4316 19.4148 25.1585 19.5516L23.2971 20.4625C22.8529 20.6879 22.4657 21.0111 22.1645 21.4079C21.8634 21.8046 21.6562 22.2644 21.5585 22.7528L21.2078 24.777C21.1461 25.0761 20.9929 25.3486 20.7694 25.5566C20.5458 25.7647 20.2631 25.898 19.9603 25.938C19.6575 25.9781 19.3498 25.9229 19.0798 25.7801C18.8099 25.6374 18.5911 25.4141 18.4538 25.1413L17.5647 23.3141C17.3369 22.8544 17.0043 22.4546 16.5938 22.1468C16.1833 21.839 15.7063 21.6319 15.2011 21.542L13.1742 21.1847C12.8759 21.1243 12.6044 20.9721 12.3971 20.7512Z" fill="#358BB9"/>
</g>
<defs>
<filter id="filter0_d_5124_137" x="0" y="0" width="37.9697" height="37.9507" filterUnits="userSpaceOnUse" color-interpolation-filters="sRGB">
<feFlood flood-opacity="0" result="BackgroundImageFix"/>
<feColorMatrix in="SourceAlpha" type="matrix" values="0 0 0 0 0 0 0 0 0 0 0 0 0 0 0 0 0 0 127 0" result="hardAlpha"/>
<feOffset/>
<feGaussianBlur stdDeviation="6"/>
<feComposite in2="hardAlpha" operator="out"/>
<feColorMatrix type="matrix" values="0 0 0 0 0.532812 0 0 0 0 0.184062 0 0 0 0 0.590937 0 0 0 0.35 0"/>
<feBlend mode="normal" in2="BackgroundImageFix" result="effect1_dropShadow_5124_137"/>
<feBlend mode="normal" in="SourceGraphic" in2="effect1_dropShadow_5124_137" result="shape"/>
</filter>
</defs>
</svg>
