<svg width="13" height="13" viewBox="0 0 13 13" fill="none" xmlns="http://www.w3.org/2000/svg">
<path d="M4.82824 0.368476C5.03358 0.175579 5.29386 0.0512588 5.57301 0.0127356C5.85216 -0.0257876 6.13637 0.023392 6.38628 0.153462C6.64016 0.289163 6.84751 0.497321 6.98102 0.752768L7.80872 2.4465C8.01963 2.87054 8.32631 3.23976 8.70454 3.52499C9.08277 3.81022 9.52219 4.00365 9.9881 4.09001L11.8693 4.41887C12.1488 4.47774 12.4028 4.62279 12.5955 4.8336C12.7882 5.0444 12.9098 5.31032 12.9433 5.59389C12.9767 5.87746 12.9203 6.16439 12.7819 6.41424C12.6436 6.6641 12.4303 6.86428 12.1721 6.98659L10.4748 7.81574C10.0502 8.02646 9.68041 8.33297 9.39471 8.71106C9.10901 9.08916 8.9152 9.52846 8.8286 9.99425L8.49607 11.8708C8.43908 12.1484 8.29692 12.4014 8.0894 12.5945C7.88187 12.7876 7.61929 12.9113 7.33818 12.9483C7.05707 12.9854 6.77141 12.9339 6.52094 12.8011C6.27048 12.6684 6.06766 12.4609 5.9407 12.2075L5.09516 10.4807C4.88591 10.0687 4.58585 9.70944 4.21755 9.43009C3.84926 9.15074 3.42233 8.95855 2.96892 8.86798L1.0896 8.54281C0.811927 8.48568 0.558959 8.34356 0.365814 8.13619C0.172669 7.92882 0.0489288 7.66649 0.0117741 7.38561C-0.0253807 7.10473 0.025893 6.81924 0.158477 6.56878C0.29106 6.31832 0.498376 6.11531 0.75164 5.98794L2.4482 5.16285C2.87502 4.95147 3.24625 4.64293 3.53204 4.26205C3.81783 3.88118 4.0102 3.43861 4.09367 2.96993L4.42565 1.08949C4.48173 0.812671 4.62309 0.560779 4.82824 0.368476Z" fill="#9547A5"/>
</svg>
