<svg width="26" height="26" viewBox="0 0 26 26" fill="none" xmlns="http://www.w3.org/2000/svg">
<path d="M9.61549 0.733958C10.0244 0.349802 10.5428 0.102217 11.0987 0.0254982C11.6546 -0.0512211 12.2206 0.0467203 12.7184 0.305757C13.224 0.576008 13.6369 0.990556 13.9028 1.49928L15.5512 4.87236C15.9712 5.71686 16.5819 6.45216 17.3352 7.02019C18.0884 7.58823 18.9635 7.97345 19.8914 8.14543L23.6378 8.80036C24.1945 8.9176 24.7004 9.20648 25.0841 9.6263C25.4679 10.0461 25.7101 10.5757 25.7767 11.1404C25.8433 11.7052 25.7309 12.2766 25.4554 12.7742C25.1799 13.2718 24.7551 13.6704 24.2408 13.914L20.8606 15.5653C20.015 15.9849 19.2786 16.5953 18.7097 17.3483C18.1407 18.1013 17.7547 18.9762 17.5823 19.9038L16.92 23.641C16.8065 24.1938 16.5234 24.6976 16.1101 25.0822C15.6968 25.4668 15.1739 25.7131 14.6141 25.7869C14.0542 25.8606 13.4853 25.7582 12.9865 25.4938C12.4877 25.2294 12.0838 24.8161 11.831 24.3116L10.1471 20.8726C9.73035 20.052 9.13277 19.3366 8.3993 18.7803C7.66584 18.2239 6.81562 17.8412 5.91264 17.6608L2.16994 17.0132C1.61696 16.8995 1.11317 16.6164 0.728522 16.2035C0.343871 15.7905 0.0974415 15.268 0.0234474 14.7087C-0.0505467 14.1493 0.0515654 13.5807 0.315607 13.0819C0.579649 12.5831 0.99252 12.1788 1.4969 11.9252L4.87562 10.282C5.72563 9.86104 6.46494 9.24658 7.0341 8.48807C7.60325 7.72955 7.98636 6.84816 8.1526 5.91479L8.81374 2.16987C8.92541 1.61858 9.20694 1.11693 9.61549 0.733958Z" fill="#9547A5"/>
</svg>
