<svg width="39" height="39" viewBox="0 0 39 39" fill="none" xmlns="http://www.w3.org/2000/svg">
<g filter="url(#filter0_d_5124_190)">
<path d="M12.268 19.8725C12.0929 19.6246 11.9993 19.3283 12 19.0248C12.0008 18.7213 12.0959 18.4255 12.2723 18.1785C12.4552 17.928 12.7085 17.7381 13.0012 17.634L14.9333 17.0051C15.4176 16.8437 15.8577 16.5719 16.2189 16.2113C16.5801 15.8506 16.8525 15.4109 17.0145 14.9269L17.6478 12.9698C17.7526 12.6805 17.9455 12.4313 18.1994 12.2574C18.4534 12.0835 18.7554 11.9936 19.0632 12.0004C19.3709 12.0073 19.6687 12.1105 19.9146 12.2955C20.1606 12.4805 20.3422 12.738 20.4341 13.0317L21.0645 14.9663C21.2257 15.4508 21.4974 15.8911 21.8582 16.2525C22.2189 16.6139 22.6587 16.8865 23.1429 17.0487L25.0961 17.6846C25.3839 17.787 25.6326 17.9766 25.8076 18.2269C25.9826 18.4771 26.0752 18.7758 26.0726 19.0811C26.0699 19.3865 25.9722 19.6835 25.7929 19.9307C25.6136 20.178 25.3617 20.3632 25.0722 20.4606L23.1021 21.1036C22.6309 21.265 22.2024 21.5312 21.849 21.8821C21.4956 22.2331 21.2264 22.6596 21.0617 23.1296L20.4327 25.0854C20.33 25.3729 20.1404 25.6215 19.89 25.7964C19.6397 25.9713 19.3411 26.0639 19.0357 26.0615C18.7303 26.059 18.4333 25.9615 18.1858 25.7826C17.9384 25.6036 17.7528 25.3521 17.6548 25.0628L17.0286 23.1296C16.867 22.6427 16.5934 22.2005 16.2297 21.8386C15.866 21.4767 15.4224 21.2052 14.9347 21.0459L12.9773 20.41C12.6902 20.3086 12.4425 20.1201 12.268 19.8725Z" fill="#9547A5"/>
</g>
<defs>
<filter id="filter0_d_5124_190" x="0" y="0" width="38.0726" height="38.0615" filterUnits="userSpaceOnUse" color-interpolation-filters="sRGB">
<feFlood flood-opacity="0" result="BackgroundImageFix"/>
<feColorMatrix in="SourceAlpha" type="matrix" values="0 0 0 0 0 0 0 0 0 0 0 0 0 0 0 0 0 0 127 0" result="hardAlpha"/>
<feOffset/>
<feGaussianBlur stdDeviation="6"/>
<feComposite in2="hardAlpha" operator="out"/>
<feColorMatrix type="matrix" values="0 0 0 0 0.532812 0 0 0 0 0.184062 0 0 0 0 0.590937 0 0 0 0.35 0"/>
<feBlend mode="normal" in2="BackgroundImageFix" result="effect1_dropShadow_5124_190"/>
<feBlend mode="normal" in="SourceGraphic" in2="effect1_dropShadow_5124_190" result="shape"/>
</filter>
</defs>
</svg>
